<svg width="90" height="90" viewBox="0 0 90 90" fill="none" xmlns="http://www.w3.org/2000/svg">
<path fill-rule="evenodd" clip-rule="evenodd" d="M11.5349 21.0638C11.819 20.3787 12.2998 19.7932 12.9165 19.3814C13.5333 18.9695 14.2583 18.7498 14.9999 18.75H52.4999C55.9471 18.75 59.3606 19.429 62.5454 20.7482C65.7302 22.0673 68.624 24.0009 71.0615 26.4384C73.499 28.876 75.4326 31.7698 76.7518 34.9546C78.071 38.1394 78.7499 41.5528 78.7499 45C78.7499 48.4472 78.071 51.8606 76.7518 55.0454C75.4326 58.2302 73.499 61.124 71.0615 63.5616C68.624 65.9991 65.7302 67.9327 62.5454 69.2518C59.3606 70.571 55.9471 71.25 52.4999 71.25H18.7499C17.7554 71.25 16.8016 70.8549 16.0983 70.1517C15.395 69.4484 14.9999 68.4946 14.9999 67.5C14.9999 66.5054 15.395 65.5516 16.0983 64.8483C16.8016 64.1451 17.7554 63.75 18.7499 63.75H52.4999C57.4728 63.75 62.2419 61.7746 65.7582 58.2583C69.2745 54.7419 71.2499 49.9728 71.2499 45C71.2499 40.0272 69.2745 35.2581 65.7582 31.7417C62.2419 28.2254 57.4728 26.25 52.4999 26.25H24.0524L30.7762 32.9738C31.4593 33.681 31.8373 34.6283 31.8287 35.6115C31.8202 36.5947 31.4258 37.5353 30.7305 38.2306C30.0352 38.9258 29.0947 39.3202 28.1115 39.3288C27.1282 39.3373 26.181 38.9593 25.4737 38.2762L12.3487 25.1512C11.8239 24.6268 11.4665 23.9586 11.3217 23.231C11.1768 22.5034 11.2511 21.7492 11.5349 21.0638Z" fill="white"/>
</svg>
