<svg width="770" height="983" viewBox="0 0 770 983" fill="#171A2C" xmlns="http://www.w3.org/2000/svg">
<path fill-rule="evenodd" clip-rule="evenodd" d="M373.827 4.81803C455.007 -14.3643 544.765 26.3165 607.689 81.0975C667.757 133.392 682.615 218.233 706.319 294.283C725.898 357.097 726.789 420.925 733.996 486.327C742.125 560.096 798.466 647.012 751.522 704.479C701.718 765.448 586.905 698.827 522.937 744.699C447.265 798.965 461.107 942.903 373.827 975.33C295.214 1004.54 202.624 945.055 143.321 885.739C87.16 829.565 90.6804 740.132 63.8996 665.337C42.1834 604.687 3.01087 550.694 0.30935 486.327C-2.44923 420.6 13.2115 353.931 48.4999 298.421C83.1186 243.966 148.194 221.583 196.093 178.355C258.627 121.919 291.863 24.1857 373.827 4.81803Z" 
 fill="#171A2C"
/>
</svg>
