<svg width="808" height="971" viewBox="0 0 808 971" fill="#171A2C" xmlns="http://www.w3.org/2000/svg">
<path fill-rule="evenodd" clip-rule="evenodd" d="M429.391 35.7684C515.989 16.9752 613.937 -23.8204 690.288 21.1862C766.72 66.2411 789.163 169.317 804.329 256.784C817.048 330.14 785.162 400.815 768.702 473.422C755.644 531.022 730.617 582.297 717.481 639.879C697.949 725.494 730.538 829.001 672.549 894.909C615.696 959.526 514.517 979.753 429.391 967.309C346.403 955.178 284.264 887.779 224.055 829.349C173.971 780.746 147.532 716.841 110.391 657.739C71.6608 596.109 -3.21866 546.138 0.379545 473.422C3.99918 400.273 88.5113 360.933 128.125 299.352C165.364 241.462 174.76 167.139 226.553 121.824C282.799 72.6133 356.378 51.6134 429.391 35.7684Z" 

fill="#171A2C"
/>
</svg>
