<svg width="838" height="825" viewBox="0 0 838 825" fill="#171A2C" xmlns="http://www.w3.org/2000/svg">
<path fill-rule="evenodd" clip-rule="evenodd" d="M378.76 3.98903C478.17 -13.5156 580.102 28.7992 662.048 87.737C744.261 146.867 812.164 231.031 832.402 330.258C851.611 424.434 819.298 523.064 767.328 603.916C722.941 672.97 641.757 701.401 569.183 739.761C507.942 772.13 447.464 800.469 378.76 809.298C300.755 819.322 208.012 845.867 149.12 793.74C89.9308 741.35 129.973 641.606 104.69 566.713C78.915 490.362 -10.2715 434.702 0.975555 354.906C12.3759 274.023 99.8871 231.778 159.734 176.187C229.485 111.396 285.003 20.4983 378.76 3.98903Z" 
fill="#171A2C"
/>
</svg>
