<svg width="30" height="30" viewBox="0 0 30 30" fill="none" xmlns="http://www.w3.org/2000/svg">
<g id="bxs:up-arrow">
<path id="Vector" d="M26.25 6.24999L3.75002 6.24999C3.52221 6.25071 3.29892 6.31353 3.10417 6.43171C2.90942 6.54989 2.75059 6.71895 2.64477 6.92068C2.53895 7.12242 2.49016 7.34919 2.50364 7.5766C2.51711 7.804 2.59236 8.02342 2.72126 8.21124L13.9713 24.4612C14.4375 25.135 15.56 25.135 16.0275 24.4612L27.2775 8.21124C27.4077 8.02381 27.4841 7.80428 27.4983 7.5765C27.5125 7.34871 27.464 7.12139 27.3581 6.91923C27.2522 6.71707 27.0929 6.5478 26.8976 6.42981C26.7022 6.31182 26.4782 6.24963 26.25 6.24999Z" fill="white"/>
</g>
</svg>
