<svg width="26" height="36" viewBox="0 0 26 36" fill="none" xmlns="http://www.w3.org/2000/svg">
<g id="Component 1">
<path id="Vector" d="M26 34.1989L26 1.798C25.999 1.46995 25.9117 1.1484 25.7476 0.867954C25.5834 0.587505 25.3485 0.358784 25.0683 0.206402C24.7881 0.0540199 24.473 -0.0162468 24.1572 0.00316238C23.8413 0.0225716 23.5364 0.130924 23.2755 0.316555L0.701952 16.517C-0.233984 17.1884 -0.233984 18.8049 0.701952 19.4781L23.2755 35.6786C23.5359 35.8661 23.8409 35.976 24.1573 35.9965C24.4737 36.017 24.7895 35.9472 25.0703 35.7946C25.3512 35.6421 25.5863 35.4127 25.7502 35.1314C25.9141 34.8501 26.0005 34.5276 26 34.1989ZM4.74089 17.9985L22.5271 5.2325L22.5271 30.7644L4.74089 17.9985Z" fill="white"/>
</g>
</svg>
