<svg width="45" height="32" viewBox="0 0 45 32" fill="none" xmlns="http://www.w3.org/2000/svg">
<path d="M3.16667 0H19C19.8399 0 20.6453 0.33363 21.2392 0.927495C21.833 1.52136 22.1667 2.32681 22.1667 3.16667C22.1667 4.00652 21.833 4.81197 21.2392 5.40584C20.6453 5.9997 19.8399 6.33333 19 6.33333H3.16667C2.32681 6.33333 1.52136 5.9997 0.927495 5.40584C0.33363 4.81197 0 4.00652 0 3.16667C0 2.32681 0.33363 1.52136 0.927495 0.927495C1.52136 0.33363 2.32681 0 3.16667 0ZM25.3333 25.3333H41.1667C42.0065 25.3333 42.812 25.667 43.4058 26.2608C43.9997 26.8547 44.3333 27.6601 44.3333 28.5C44.3333 29.3399 43.9997 30.1453 43.4058 30.7392C42.812 31.333 42.0065 31.6667 41.1667 31.6667H25.3333C24.4935 31.6667 23.688 31.333 23.0942 30.7392C22.5003 30.1453 22.1667 29.3399 22.1667 28.5C22.1667 27.6601 22.5003 26.8547 23.0942 26.2608C23.688 25.667 24.4935 25.3333 25.3333 25.3333ZM3.16667 12.6667H41.1667C42.0065 12.6667 42.812 13.0003 43.4058 13.5942C43.9997 14.188 44.3333 14.9935 44.3333 15.8333C44.3333 16.6732 43.9997 17.4786 43.4058 18.0725C42.812 18.6664 42.0065 19 41.1667 19H3.16667C2.32681 19 1.52136 18.6664 0.927495 18.0725C0.33363 17.4786 0 16.6732 0 15.8333C0 14.9935 0.33363 14.188 0.927495 13.5942C1.52136 13.0003 2.32681 12.6667 3.16667 12.6667Z" fill="white"/>
</svg>
