<svg width="26" height="36" viewBox="0 0 26 36" fill="none" xmlns="http://www.w3.org/2000/svg">
<g id="Component 2">
<path id="Vector" d="M3.8147e-06 1.80108L3.8147e-06 34.202C0.000995636 34.53 0.0882721 34.8516 0.252441 35.132C0.416609 35.4125 0.651451 35.6412 0.931688 35.7936C1.21193 35.946 1.52695 36.0162 1.84285 35.9968C2.15874 35.9774 2.46355 35.8691 2.72446 35.6834L25.298 19.483C26.234 18.8116 26.234 17.1951 25.298 16.5219L2.72446 0.321442C2.46409 0.133921 2.15913 0.0239549 1.84271 0.00349016C1.52629 -0.0169745 1.21051 0.0528452 0.929674 0.205364C0.648844 0.357882 0.4137 0.587266 0.249798 0.868593C0.0858955 1.14992 -0.000495911 1.47243 3.8147e-06 1.80108ZM21.2591 18.0015L3.47286 30.7675L3.47286 5.23558L21.2591 18.0015Z" fill="white"/>
</g>
</svg>
