<svg width="25" height="27" viewBox="0 0 25 27" fill="none" xmlns="http://www.w3.org/2000/svg">
<path d="M18.649 25.5H1.6375C1.4187 25.5 1.20885 25.4131 1.05414 25.2584C0.899419 25.1037 0.8125 24.8938 0.8125 24.675V11.2C0.8125 10.9812 0.899419 10.7714 1.05414 10.6166C1.20885 10.4619 1.4187 10.375 1.6375 10.375H5.4435C5.91839 10.375 6.38518 10.252 6.79843 10.0181C7.21168 9.7841 7.5573 9.4471 7.80163 9.03988L11.5279 2.82901C11.8089 2.35993 12.2516 2.00969 12.7728 1.84417C13.294 1.67864 13.8577 1.70923 14.3578 1.93019C14.858 2.15115 15.2603 2.54724 15.4889 3.04398C15.7175 3.54071 15.7567 4.10386 15.5992 4.62751L14.194 9.31351C14.1572 9.43658 14.1496 9.56656 14.1719 9.69308C14.1942 9.8196 14.2457 9.93917 14.3223 10.0423C14.399 10.1454 14.4986 10.2291 14.6134 10.2869C14.7281 10.3447 14.8548 10.3748 14.9832 10.375H21.2752C21.698 10.3751 22.115 10.4727 22.4939 10.6602C22.8729 10.8477 23.2034 11.12 23.46 11.456C23.7166 11.792 23.8923 12.1826 23.9734 12.5975C24.0545 13.0124 24.0388 13.4404 23.9276 13.8483L21.3014 23.4733C21.1428 24.055 20.7974 24.5685 20.3184 24.9347C19.8394 25.3009 19.252 25.4995 18.649 25.5Z" stroke="white" stroke-width="1.5" stroke-linecap="round"/>
<path d="M5.625 25.5V10.375" stroke="white" stroke-width="1.5" stroke-linecap="round" stroke-linejoin="round"/>
</svg>
