<svg width="25" height="27" viewBox="0 0 25 27" fill="none" xmlns="http://www.w3.org/2000/svg">
<path d="M6.18791 1.73895L23.1994 1.73895C23.4182 1.73895 23.6281 1.82587 23.7828 1.98059C23.9375 2.13531 24.0244 2.34515 24.0244 2.56395L24.0244 16.039C24.0244 16.2578 23.9375 16.4676 23.7828 16.6223C23.6281 16.777 23.4182 16.864 23.1994 16.864H19.3934C18.9185 16.864 18.4517 16.9869 18.0385 17.2209C17.6252 17.4549 17.2796 17.7919 17.0353 18.1991L13.309 24.41C13.028 24.879 12.5853 25.2293 12.0641 25.3948C11.5429 25.5603 10.9793 25.5297 10.4791 25.3088C9.97888 25.0878 9.57665 24.6917 9.34803 24.195C9.11942 23.6983 9.08017 23.1351 9.23766 22.6115L10.6429 17.9255C10.6797 17.8024 10.6873 17.6724 10.665 17.5459C10.6428 17.4194 10.5912 17.2998 10.5146 17.1967C10.4379 17.0936 10.3383 17.0098 10.2235 16.9521C10.1088 16.8943 9.98213 16.8641 9.85366 16.864H3.56166C3.13891 16.8638 2.72188 16.7662 2.34297 16.5788C1.96405 16.3913 1.63347 16.119 1.37689 15.783C1.12031 15.447 0.944647 15.0564 0.86355 14.6415C0.782453 14.2266 0.798104 13.7986 0.909288 13.3907L3.53554 3.76571C3.69412 3.18398 4.03949 2.67049 4.51849 2.30428C4.9975 1.93807 5.58496 1.73943 6.18791 1.73895Z" stroke="white" stroke-width="1.5" stroke-linecap="round"/>
<path d="M19.2119 1.73895L19.2119 16.864" stroke="white" stroke-width="1.5" stroke-linecap="round" stroke-linejoin="round"/>
</svg>
